<?xml version="1.0" encoding="iso-8859-1"?>
<!-- Generator: Adobe Illustrator 19.0.0, SVG Export Plug-In . SVG Version: 6.00 Build 0)  -->
<svg version="1.1" id="Capa_1" xmlns="http://www.w3.org/2000/svg" xmlns:xlink="http://www.w3.org/1999/xlink" x="0px" y="0px"
	 viewBox="0 0 512.001 512.001" style="enable-background:new 0 0 512.001 512.001;" xml:space="preserve">
<path style="fill:#EDC183;" d="M467.215,216.857c-26.626,14.893-58.442,18.777-88.256,10.079
	c5.17,16.372,10.088,32.319,13.637,44.608c37.217,6.063,75.819-6.553,102.416-34.919c0.011-0.012,0.017-0.018,0.017-0.018
	C495.664,234.704,484.127,226.979,467.215,216.857z"/>
<g>
	<path style="fill:#CF5530;" d="M133.038,226.936c8.965-28.386,18.685-58.056,23.33-72.157
		C130.8,168.458,40.035,219.7,44.785,216.857C71.41,231.749,103.226,235.634,133.038,226.936z"/>
	<path style="fill:#CF5530;" d="M378.96,226.936c29.813,8.698,61.63,4.814,88.256-10.079c0.119,0.071,0.238,0.142,0.356,0.214
		c-33.795-20.25-89.44-50.254-111.94-62.291c4.653,14.125,14.399,43.875,23.376,72.31
		C378.992,227.038,378.976,226.987,378.96,226.936z"/>
</g>
<path style="fill:#EDC183;" d="M133.038,226.936c-29.813,8.697-61.628,4.813-88.254-10.079
	c-16.911,10.122-28.449,17.847-27.814,19.75c0,0,0.005,0.006,0.017,0.018c26.596,28.364,65.195,40.981,102.41,34.92
	C122.946,259.26,127.867,243.312,133.038,226.936z"/>
<path style="fill:#AF5042;" d="M327.36,467.104c12.188-16.119,18.557-36.005,17.855-56.374c-0.053-1.526,17.55-28.869,32.663-50.256
	c13.788-19.5,20.867-42.943,20.168-66.81c-0.35-12.145-45.19-147.292-45.19-147.292c-3.773-2.872-10.047-5.331-18.08-7.355v30.31
	c0,43.505-35.271,78.775-78.775,78.775c-43.505,0-78.775-35.27-78.775-78.775v-30.31c-8.033,2.024-14.307,4.483-18.08,7.355
	c0,0-44.83,135.115-45.19,147.249c-0.699,23.877,6.37,47.342,20.158,66.852c15.123,21.387,32.727,48.73,32.674,50.256
	c-0.702,20.37,5.666,40.256,17.854,56.374"/>
<g>
	<path style="fill:#CCCCCC;" d="M154.528,155.764c-24.682-14.052-44.131-36.082-54.922-62.768C84.417,55.434,65.866,10.7,63.394,10
		c-0.28-0.079-5.563,31.544-10.946,64.242c-7.093,43.079,2.448,87.062,26.456,122.917
		C107.268,181.193,138.153,164.534,154.528,155.764z"/>
	<path style="fill:#CCCCCC;" d="M433.097,197.16c24.007-35.855,33.548-79.838,26.456-122.917
		c-5.384-32.698-10.666-64.322-10.946-64.242c-2.472,0.7-21.022,45.434-36.212,82.996c-10.791,26.686-30.24,48.715-54.922,62.768
		C373.847,164.534,404.732,181.193,433.097,197.16z"/>
</g>
<path style="fill:#F94646;" d="M334.775,139.017v30.31c0,43.505-35.27,78.775-78.775,78.775s-78.775-35.27-78.775-78.775v-30.31
	C216.035,129.204,295.965,129.204,334.775,139.017z"/>
<path d="M256,402.3c-0.65,0-1.311-0.07-1.95-0.2s-1.27-0.319-1.88-0.569c-0.601-0.25-1.18-0.561-1.72-0.921
	c-0.551-0.359-1.061-0.779-1.521-1.239c-1.86-1.86-2.93-4.44-2.93-7.07c0-0.65,0.06-1.31,0.189-1.95c0.13-0.64,0.32-1.27,0.57-1.88
	c0.25-0.6,0.56-1.18,0.92-1.72c0.37-0.55,0.79-1.061,1.25-1.521s0.97-0.88,1.521-1.239c0.54-0.36,1.119-0.671,1.72-0.921
	c0.61-0.26,1.24-0.449,1.88-0.579c3.24-0.65,6.69,0.409,9.02,2.739c0.461,0.46,0.881,0.971,1.24,1.521
	c0.36,0.54,0.67,1.12,0.92,1.72c0.25,0.61,0.44,1.24,0.57,1.88c0.13,0.641,0.2,1.3,0.2,1.95c0,2.63-1.07,5.21-2.931,7.07
	c-0.46,0.46-0.97,0.88-1.52,1.239c-0.54,0.36-1.12,0.671-1.73,0.921c-0.6,0.25-1.229,0.439-1.869,0.569
	C257.31,402.23,256.65,402.3,256,402.3z"/>
<path style="fill:#EDC183;" d="M310.858,502H201.142c-9.114,0-16.502-7.388-16.502-16.502v-29.176
	c0-9.114,7.388-16.502,16.502-16.502h109.716c9.114,0,16.502,7.388,16.502,16.502v29.176C327.36,494.612,319.972,502,310.858,502z"
	/>
<path d="M493.427,221.615c-4.82-3.365-37.252-22.856-46.302-28.005c21.318-36.328,29.228-78.879,22.295-120.992
	c-3.087-18.747-5.565-33.649-7.367-44.293c-1.019-6.019-1.879-11.021-2.505-14.531c-1.308-7.328-1.748-9.797-5.569-12.229
	c-2.405-1.53-5.354-1.965-8.099-1.186c-5.005,1.418-7.168,5.536-10.867,13.302c-2.239,4.701-5.245,11.448-8.935,20.054
	c-5.915,13.796-13.638,32.474-22.954,55.513c-8.498,21.015-23.077,39.209-41.601,52.14c-0.661-1.148-1.546-2.16-2.61-2.971
	c-4.789-3.647-11.875-6.619-21.66-9.087c-0.009-0.002-0.018-0.005-0.026-0.007c-40.232-10.174-122.221-10.174-162.453,0
	c-0.009,0.002-0.018,0.005-0.026,0.007c-9.785,2.468-16.871,5.44-21.66,9.087c-1.065,0.81-1.95,1.822-2.61,2.971
	c-18.523-12.931-33.102-31.125-41.601-52.14c-9.317-23.04-17.04-41.717-22.955-55.513c-3.689-8.605-6.695-15.353-8.935-20.054
	C73.288,5.915,71.125,1.797,66.102,0.373c-2.737-0.771-5.68-0.335-8.08,1.191c-3.821,2.432-4.262,4.9-5.569,12.229
	c-0.626,3.51-1.486,8.513-2.505,14.531c-1.802,10.644-4.28,25.546-7.367,44.294c-6.961,42.279,1.042,85.003,22.552,121.425
	c-1.011,0.567-41.749,24.213-46.559,27.571c-6.196,4.326-13.907,9.71-11.089,18.157c0.409,1.227,1.053,2.361,1.894,3.343
	c0.072,0.084,0.163,0.187,0.238,0.268c0.025,0.028,0.051,0.056,0.076,0.083c23.9,25.488,56.93,39.583,91.179,39.581
	c1.705,0,3.413-0.035,5.123-0.105c-1.25,4.994-1.984,8.611-2.036,10.388c-0.758,25.885,7.051,51.78,21.989,72.919
	c13.351,18.88,27.218,40.373,30.791,46.635c-0.18,20.497,6.116,40.694,17.902,57.476v15.14c0,14.613,11.889,26.502,26.501,26.502
	h109.717c14.612,0,26.501-11.889,26.501-26.502v-15.14c11.784-16.78,18.081-36.975,17.903-57.476
	c3.569-6.254,17.428-27.74,30.779-46.635c14.944-21.134,22.757-47.015,22-72.871c-0.052-1.784-0.788-5.419-2.044-10.437
	c1.714,0.07,3.426,0.106,5.135,0.106c34.245,0,67.277-14.094,91.175-39.58c0.025-0.027,0.051-0.055,0.076-0.083
	c0.075-0.081,0.166-0.184,0.238-0.268c0.841-0.981,1.484-2.116,1.894-3.343C507.334,231.325,499.623,225.941,493.427,221.615z
	 M372.952,175.456c21.139,11.441,49.197,26.816,72.489,40.231c-18.77,6.472-39.211,7.576-58.573,2.996
	C382.151,203.789,377.271,188.694,372.952,175.456z M421.665,96.745c10.176-25.165,17.378-42.472,22.469-54.37
	c1.427,8.524,3.241,19.46,5.552,33.491c6.188,37.587-0.905,75.558-19.989,107.923c-18.813-10.503-38.031-20.965-52.733-28.899
	C396.748,139.983,412.336,119.816,421.665,96.745z M187.225,147.038c15.91-3.1,37-4.855,58.775-5.266v95.605
	c-33.201-4.857-58.775-33.523-58.775-68.05V147.038z M266,141.773c21.775,0.41,42.865,2.166,58.775,5.266v22.289
	c0,34.527-25.575,63.193-58.775,68.05V141.773z M125.13,218.684c-19.174,4.534-39.41,3.497-58.032-2.812
	c1.543-0.866,3.164-1.774,4.85-2.72c18.773-10.527,46.313-25.971,67.016-37.437C134.664,188.89,129.817,203.887,125.13,218.684z
	 M62.315,75.868c2.311-14.031,4.125-24.968,5.552-33.492c5.091,11.898,12.293,29.205,22.469,54.37
	c9.329,23.07,24.917,43.237,44.702,58.145c-14.698,7.933-33.912,18.392-52.733,28.9C63.22,151.424,56.127,113.453,62.315,75.868z
	 M31.634,236.905c2.973-2.011,7.274-4.783,13.483-8.567c17.436,8.682,36.708,13.127,56.022,13.126
	c5.757,0,11.517-0.395,17.233-1.191c-2.438,7.9-4.716,15.424-6.709,22.217C82.533,265.497,53.582,256.194,31.634,236.905z
	 M310.859,492H201.142c-3.585,0-6.501-2.917-6.501-6.502v-18.381c0-0.034,0-0.068,0-0.102v-10.692c0-3.585,2.916-6.502,6.501-6.502
	h109.717c3.585,0,6.501,2.917,6.501,6.502v10.692c0,0.034,0,0.068,0,0.102v18.381C317.36,489.083,314.444,492,310.859,492z
	 M369.71,354.703c-6.967,9.859-15.282,22.162-22.244,32.909c-12.397,19.139-12.362,20.143-12.245,23.461
	c0.33,9.571-1.122,19.095-4.195,28.075c-4.865-5.704-12.101-9.328-20.167-9.328H201.142c-8.066,0-15.302,3.623-20.167,9.327
	c-3.073-8.979-4.524-18.502-4.194-28.073c0.115-3.326,0.149-4.33-12.248-23.464c-6.97-10.757-15.289-23.061-22.253-32.909
	c-12.433-17.593-18.941-39.141-18.332-60.684c0.226-2.369,5.125-19.899,5.219-20.322c3.284-11.287,37.639-118.649,38.059-119.917
	v15.548c0,45.571,34.514,83.231,78.775,88.215v93.187c0,5.522,4.478,10,10,10s10-4.478,10-10v-93.187
	c44.261-4.984,78.775-42.645,78.775-88.215V153.78c0.421,1.271,34.784,108.676,38.059,119.936
	c0.091,0.409,4.993,17.963,5.219,20.339C388.662,315.576,382.151,337.111,369.71,354.703z M400.331,262.487
	c-1.992-6.793-4.269-14.316-6.707-22.214c5.716,0.795,11.477,1.19,17.236,1.19c19.311-0.001,38.589-4.445,56.022-13.127
	c6.209,3.784,10.511,6.556,13.484,8.567C458.417,256.195,429.469,265.497,400.331,262.487z"/>
<path d="M229.591,480.91h-13.424c-5.522,0-10-4.478-10-10s4.478-10,10-10h13.424c5.522,0,10,4.478,10,10
	S235.113,480.91,229.591,480.91z"/>
<path d="M295.833,480.91h-13.424c-5.522,0-10-4.478-10-10s4.478-10,10-10h13.424c5.522,0,10,4.478,10,10
	S301.356,480.91,295.833,480.91z"/>
<path style="fill:#EDC183;" d="M343.829,306.061c-9.499,9.499-29.368,5.031-29.368,5.031s-4.468-19.869,5.031-29.368
	c9.499-9.499,29.368-5.031,29.368-5.031S353.328,296.562,343.829,306.061z"/>
<path d="M324.909,322.156c-6.438,0-11.509-1.052-12.643-1.307c-3.771-0.849-6.715-3.793-7.563-7.563
	c-0.58-2.584-5.3-25.616,7.717-38.633c13.018-13.016,36.05-8.298,38.634-7.718c3.771,0.849,6.715,3.793,7.563,7.563
	c0.58,2.583,5.3,25.616-7.719,38.633C343.596,320.436,333.138,322.156,324.909,322.156z M323.433,302.125
	c5.17,0.17,10.78-0.593,13.324-3.136c0,0,0,0,0.001,0c2.542-2.543,3.303-8.145,3.134-13.33c-5.188-0.173-10.785,0.592-13.33,3.136
	C323.955,291.403,323.272,297.096,323.433,302.125z"/>
<path style="fill:#EDC183;" d="M168.172,306.061c9.499,9.499,29.368,5.031,29.368,5.031s4.468-19.869-5.031-29.368
	c-9.499-9.499-29.368-5.031-29.368-5.031S158.673,296.562,168.172,306.061z"/>
<path d="M187.091,322.156c-8.229,0-18.686-1.72-25.99-9.023h0.001c-13.019-13.017-8.299-36.05-7.719-38.633
	c0.849-3.771,3.793-6.715,7.563-7.563c2.582-0.58,25.615-5.299,38.633,7.717c13.018,13.018,8.298,36.05,7.718,38.634
	c-0.849,3.77-3.793,6.714-7.563,7.563C198.601,321.104,193.527,322.156,187.091,322.156z M172.107,285.665
	c-0.167,5.176,0.593,10.781,3.136,13.324c0.001,0,0.001,0,0.001,0c2.607,2.607,8.302,3.291,13.33,3.13
	c0.167-5.176-0.593-10.781-3.136-13.325C182.831,286.189,177.146,285.51,172.107,285.665z"/>
<g>
</g>
<g>
</g>
<g>
</g>
<g>
</g>
<g>
</g>
<g>
</g>
<g>
</g>
<g>
</g>
<g>
</g>
<g>
</g>
<g>
</g>
<g>
</g>
<g>
</g>
<g>
</g>
<g>
</g>
</svg>
