<svg xmlns="http://www.w3.org/2000/svg" viewBox="0 0 877.42 118.69"><title>NANOX Logo BLACK</title><g id="Layer_2" data-name="Layer 2"><g id="Layer_1-2" data-name="Layer 1"><path d="M82.32,1.38a35.48,35.48,0,0,1,25.2,10.4,36.11,36.11,0,0,1,7.69,11.4A34.59,34.59,0,0,1,118,37v81.4H99V36.75a16.91,16.91,0,0,0-1.34-6.7,17.12,17.12,0,0,0-3.75-5.5,18.79,18.79,0,0,0-5.52-3.77,16.11,16.11,0,0,0-6.67-1.4H35.37A16.65,16.65,0,0,0,23,24.5a16.83,16.83,0,0,0-5,12.25v81.63H0V37a34.12,34.12,0,0,1,2.84-13.8,37.14,37.14,0,0,1,7.69-11.4A34.65,34.65,0,0,1,21.88,4.13a35.55,35.55,0,0,1,14-2.75Z"/><path d="M219.4,14.09A43.49,43.49,0,0,1,238.25,1.78,35.31,35.31,0,0,1,249.18,0a36.16,36.16,0,0,1,11.09,1.78,43.22,43.22,0,0,1,10.3,4.93,41.11,41.11,0,0,1,8.49,7.38,31.32,31.32,0,0,1,5.67,9.26L310.8,88.09a37.28,37.28,0,0,1,2.63,13.55,20.05,20.05,0,0,1-2.83,10.57A13,13,0,0,1,299,118.38h-5.13a.69.69,0,0,1-.63,0l1-12.8-.05-5.25c0-1.84,0-1.84-.85-5.45h0L267.35,30a16.56,16.56,0,0,0-2.89-4.2,24.41,24.41,0,0,0-4.39-3.76,23.1,23.1,0,0,0-5.42-2.71,16.89,16.89,0,0,0-5.47-1,16,16,0,0,0-5.42,1,24.12,24.12,0,0,0-5.27,2.71A27.88,27.88,0,0,0,234,25.81,17.65,17.65,0,0,0,230.93,30s0,0,0,0L205.34,94.84l0,.06c-.8,2.13-1.09,3.48-1.09,7.36V118a.34.34,0,0,1-.35.35h-4.29A13,13,0,0,1,188,112.21a17.76,17.76,0,0,1-3-10.42,38.11,38.11,0,0,1,2.83-13.7l25.78-64.74A32,32,0,0,1,219.4,14.09Z"/><rect x="240.22" y="67.38" width="17" height="19" rx="0.35"/><path d="M462.69,1.38a35.43,35.43,0,0,1,25.19,10.4,36.14,36.14,0,0,1,7.7,11.4A34.59,34.59,0,0,1,498.37,37v81.4h-18V36.75a16.91,16.91,0,0,0-1.34-6.7,17.12,17.12,0,0,0-3.75-5.5,18.79,18.79,0,0,0-5.52-3.77,16.11,16.11,0,0,0-6.67-1.4H416.74a16.65,16.65,0,0,0-12.33,5.12,16.83,16.83,0,0,0-5,12.25v81.63h-19V37a34,34,0,0,1,2.84-13.8,37.14,37.14,0,0,1,7.69-11.4,34.65,34.65,0,0,1,11.35-7.65,35.52,35.52,0,0,1,14-2.75Z"/><path d="M685.81,22.3a36,36,0,0,0-7.67-11.46A35.53,35.53,0,0,0,652.88.38H606.22A35.11,35.11,0,0,0,581,10.84,36,36,0,0,0,573.3,22.3a35.15,35.15,0,0,0-2.75,13.82V82.65a35,35,0,0,0,2.75,13.92A36,36,0,0,0,581,107.89a36.39,36.39,0,0,0,11.38,7.7,34.59,34.59,0,0,0,13.88,2.79h46.66a34.86,34.86,0,0,0,13.79-2.79,36,36,0,0,0,19.14-19,35,35,0,0,0,2.74-13.92V36.12A35.14,35.14,0,0,0,685.81,22.3ZM669.55,83.09a16.47,16.47,0,0,1-1.39,6.72,17.88,17.88,0,0,1-3.74,5.53A17.45,17.45,0,0,1,659,99a16.63,16.63,0,0,1-6.67,1.34H606.1a17.16,17.16,0,0,1-12.41-5,17.91,17.91,0,0,1-3.75-5.53,16.64,16.64,0,0,1-1.39-6.72V36.68A16.72,16.72,0,0,1,589.94,30a18,18,0,0,1,3.75-5.52,17.51,17.51,0,0,1,6.63-4.14,17.26,17.26,0,0,1,5.75-.91h46.21A16.64,16.64,0,0,1,659,20.73a17.45,17.45,0,0,1,5.47,3.7A18,18,0,0,1,668.16,30a16.55,16.55,0,0,1,1.39,6.73Z"/><path d="M777.49.31l23.15,39a31.27,31.27,0,0,1,4.29,9.54,41.93,41.93,0,0,1,0,21.49,31.17,31.17,0,0,1-4.29,9.58l-23.15,38.79-15.44-10.2L785.2,69.7a12.8,12.8,0,0,0,2-4.62,24.15,24.15,0,0,0,0-11,13.72,13.72,0,0,0-2-4.72l-23.15-39Z"/><rect x="811.62" y="50.38" width="17" height="18"/><path d="M862.08.31l15.34,10.1-23.06,39a13.51,13.51,0,0,0-2.12,4.72,22.75,22.75,0,0,0,0,11,12.61,12.61,0,0,0,2.12,4.62l23.06,38.79-15.34,10.2L838.93,79.9a29.28,29.28,0,0,1-4.34-9.58,43.44,43.44,0,0,1,0-21.49,29.36,29.36,0,0,1,4.34-9.54Z"/></g></g></svg>