<svg id="Capa_1" enable-background="new 0 0 512 512" height="512" viewBox="0 0 512 512" width="512" xmlns="http://www.w3.org/2000/svg"><g><path d="m129.593 123.751v95.602l30.751.006c26.28.14 47.543 21.481 47.543 47.794s-21.263 47.655-47.543 47.794l24.13 168.903h143.05l24.104-168.712c-26.268-.154-47.516-21.489-47.516-47.794 0-26.313 21.253-47.941 47.533-48.081l30.761.088v-95.602l-54.882-40.015h-143.05z" fill="#f9b700"/><path d="m327.525 83.736h-71.525v400.115h71.525l24.104-168.712c-26.268-.154-47.516-21.489-47.516-47.793 0-26.313 21.253-47.941 47.533-48.081l30.761.088v-95.602z" fill="#f49d14"/><g fill="#ce7000"><path d="m241 392.852h30v90.999h-30z"/><path d="m241 328.518h30v32.167h-30z"/><path d="m129.593 219.353h-33.991c-52.8 0-95.602-42.803-95.602-95.602v-95.602c0 52.799 42.802 95.602 95.602 95.602h33.992v95.602z"/></g><path d="m382.407 219.353h33.992c52.799 0 95.602-42.802 95.602-95.602v-95.602c0 52.799-42.802 95.602-95.602 95.602h-33.992z" fill="#823c08"/><path d="m256 392.852h15v90.999h-15z" fill="#823c08"/><path d="m256 328.518h15v32.167h-15z" fill="#823c08"/><path d="m184.529 83.736c0 39.473 31.999 71.471 71.471 71.471 39.473 0 71.471-31.999 71.471-71.471z" fill="#ce7000"/><path d="m256 83.736v71.471c39.473 0 71.471-31.999 71.471-71.471z" fill="#823c08"/></g></svg>