<svg id="Capa_1" enable-background="new 0 0 512 512" height="512" viewBox="0 0 512 512" width="512" xmlns="http://www.w3.org/2000/svg" xmlns:xlink="http://www.w3.org/1999/xlink"><linearGradient id="SVGID_1_" gradientUnits="userSpaceOnUse" x1="256.5" x2="256.5" y1="512" y2="0"><stop offset="0" stop-color="#fd3a84"/><stop offset="1" stop-color="#ffa68d"/></linearGradient><linearGradient id="SVGID_2_" gradientUnits="userSpaceOnUse" x1="256" x2="256" y1="451" y2="151"><stop offset="0" stop-color="#ffc2cc"/><stop offset="1" stop-color="#fff2f4"/></linearGradient><g><g><g><path d="m373.237 241c-6.213-17.422-22.707-30-42.237-30-28.916 0-43.799 5.713-55.752 10.298-14.707 5.654-23.789 5.654-38.496 0-11.953-4.585-26.836-10.298-55.752-10.298-19.53 0-36.024 12.578-42.237 30l-32.763 30 30 30v75c0 3.984 1.582 7.793 4.395 10.605l25.605 25.606v8.789l30 15-30 15v16c0 24.814 20.186 45 45 45h90c24.814 0 45-20.186 45-45v-16l-30-15 30-15v-8.789l25.605-25.605c2.813-2.813 4.395-6.622 4.395-10.606v-75l31-30zm-186.026-135h38.789v60c0 8.291 6.709 15 15 15h30c8.291 0 15-6.709 15-15v-60h38.789c6.064 0 11.543-3.647 13.857-9.258s1.025-12.056-3.252-16.348l-68.789-76c-2.929-2.929-6.767-4.394-10.605-4.394s-7.676 1.465-10.605 4.395l-68.789 76c-4.277 4.292-5.566 10.737-3.252 16.348s7.792 9.257 13.857 9.257z" fill="url(#SVGID_1_)"/></g></g><g><g><path d="m60 211c0-16.569 13.431-30 30-30h16c8.401 0 15-6.601 15-15 0-8.401-6.599-15-15-15h-31c-41.4 0-75 33.6-75 75 0 41.642 33.393 75 75 75h61v-45c0-5.284 1.082-10.285 2.763-15h-48.763c-16.569 0-30-13.433-30-30zm172.709 106.582-30-15c-7.412-3.662-16.406-.688-20.127 6.709-3.691 7.412-.703 16.421 6.709 20.127l30 15c7.585 3.741 16.473.579 20.127-6.709 3.691-7.412.703-16.421-6.709-20.127zm-21.709 103.418h-45v30h45c8.291 0 15-6.709 15-15s-6.709-15-15-15zm111.709-91.582c7.412-3.706 10.4-12.715 6.709-20.127-3.721-7.427-12.715-10.4-20.127-6.709l-30 15c-7.412 3.706-10.4 12.715-6.709 20.127 3.658 7.295 12.547 10.448 20.127 6.709zm114.291-178.418h-30c-8.401 0-16 6.599-16 15 0 8.399 7.599 15 16 15h15c16.569 0 30 13.431 30 30 0 16.567-13.431 30-30 30h-48.763c1.681 4.715 2.763 9.716 2.763 15v45h61c41.607 0 75-33.358 75-75 0-41.4-33.6-75-75-75zm-151 285c0 8.291 6.709 15 15 15h45v-30h-45c-8.291 0-15 6.709-15 15z" fill="url(#SVGID_2_)"/></g></g></g></svg>