<svg id="Capa_1" enable-background="new 0 0 512 512" height="512" viewBox="0 0 512 512" width="512" xmlns="http://www.w3.org/2000/svg"><g><path d="m446.31 189.834c0 39.102-31.82 70.924-70.93 70.924h-4.95l-12.38-60.183 11.1-20.741h67.16c5.51-.001 10 4.479 10 10z" fill="#6d2e2f"/><path d="m65.69 189.834c0 39.102 31.82 70.924 70.93 70.924h4.95l12.38-60.183-11.1-20.741h-67.16c-5.51-.001-10 4.479-10 10z" fill="#914849"/><path d="m216.33 145.932c-29.925-35.103-39.143-86.247-14.181-138.744 2.074-4.364-2.78-9.087-7.137-6.406-76.829 47.314-88.061 124.58-47.496 199.089h68.813v-53.939z" fill="#ffefae"/><path d="m295.67 145.811c29.925-35.103 39.143-86.126 14.181-138.623-2.074-4.364 2.78-9.087 7.137-6.406 76.829 47.314 88.061 124.58 47.496 199.089h-68.814z" fill="#ffe266"/><path d="m165.208 410.224-6.06 51.516c-3.136 26.651 17.675 50.26 44.691 50.26h104.579c26.918 0 47.955-23.567 44.668-50.462l-6.267-51.283-90.819-21.221s-81.395 20.09-90.792 21.19z" fill="#914849"/><path d="m308.42 512h-52.42v-122.966l90.82 21.221 6.27 51.283c3.28 26.891-17.75 50.462-44.67 50.462z" fill="#6d2e2f"/><path d="m349.81 301.219c15.083-33.018 26.42-32.184 26.42-44.232l-11.75-57.113-68.81-54.063-39.67 13.801-39.77-13.801-68.85 53.943-11.61 57.233c0 12.192 11.346 10.917 26.52 44.462 24.081 53.23 2.918 108.774 2.918 108.774 9.712-1.137 42.58-11.083 90.279-11.18 46.149-.094 76.874 8.924 91.332 11.212 0 .001-21.548-56.019 2.991-109.036z" fill="#ab5443"/><path d="m349.81 301.219c-24.54 53.013-2.99 109.036-2.99 109.036-14.41-2.28-44.95-11.231-90.82-11.211v-239.432l39.67-13.801 68.81 54.063 11.75 57.113c0 12.051-11.34 11.211-26.42 44.232z" fill="#914849"/><path d="m211.46 475.668v36.332h-7.62c-27.02 0-47.83-23.611-44.69-50.263l1.3-11.071h26.01c13.79.001 25 11.211 25 25.002z" fill="#6d2e2f"/><path d="m308.42 512h-7.88v-36.332c0-13.791 11.21-25.001 25-25.001h26.22l1.33 10.871c3.28 26.891-17.75 50.462-44.67 50.462z" fill="#4f1d22"/><path d="m200.69 286.448c0 8.29-6.71 15.001-15 15.001h-23.4c-6.6-14.591-14.32-24.861-18.64-30.002h42.04c8.29.001 15 6.721 15 15.001z" fill="#914849"/><path d="m368.58 271.218c-4.27 5.06-12.1 15.401-18.77 30.002h-24.81c-8.28 0-15-6.71-15-15.001 0-8.28 6.72-15.001 15-15.001z" fill="#6d2e2f"/></g></svg>