<svg height="512" viewBox="0 0 512 512" width="512" xmlns="http://www.w3.org/2000/svg"><g id="Flat"><path d="m365.65685 77.65685 28.6863 28.6863a8 8 0 0 1 0 11.3137l-76.6863 76.6863a8 8 0 0 1 -11.3137 0l-105.37259-105.37259a24 24 0 0 0 -33.94112 0l-137.37259 137.37259a8 8 0 0 0 0 11.3137l28.6863 28.6863a8 8 0 0 0 11.3137 0l108.6863-108.6863a8 8 0 0 1 11.3137 0l105.37259 105.37259a24 24 0 0 0 33.94112 0l105.37259-105.37259a8 8 0 0 1 11.3137 0l28.6863 28.6863a8 8 0 0 0 13.65685-5.65686v-108.68629a8 8 0 0 0 -8-8h-108.68629a8 8 0 0 0 -5.65686 13.65685z" fill="#03999c"/><path d="m88 264.0039c-32 0-40 16-40 16s8 16 40 16z" fill="#632b1a"/><path d="m66.168 284.00488a4.00072 4.00072 0 0 1 -1.69434-7.626c6.22168-2.90283 14.13672-4.375 23.52637-4.375a4 4 0 0 1 0 8c-8.21191 0-14.98926 1.21973-20.14355 3.625a3.9883 3.9883 0 0 1 -1.68848.376z" fill="#4d150b"/><path d="m163.1001 416-8 24h-48l8-24c32-32 32-56 32-56-8-8-16-32-16-48l80-16c24 64-48 120-48 120z" fill="#632b1a"/><path d="m435.42993 394.66-9.14993 21.34-10.28 24h-48l8-24 6.23-3.11a32.8997 32.8997 0 0 0 14.66016-14.66 12.03677 12.03677 0 0 0 -.75-12.02l-12.14016-18.21-35.28-10.58a56.00268 56.00268 0 0 1 -39.56006-59.83l2.84006-25.59h111.1001a56.02046 56.02046 0 0 1 9.21 46.76l-8.3101 33.24 10.81006 21.63a24.98685 24.98685 0 0 1 .61987 21.03z" fill="#632b1a"/><path d="m426.28 416-10.28 24h-48l8-24z" fill="#f3b73f"/><path d="m102.38751 224h-17.89509a16 16 0 0 1 -15.52228-12.11943l-4.97014-19.88057-12.00159 27.00357a32 32 0 0 0 29.24197 44.99643h21.14713a20 20 0 0 0 15.61736-7.50609 20 20 0 0 0 0-24.98778 20 20 0 0 0 -15.61736-7.50613z" fill="#f0cd81"/><path d="m469.45 384.82a24.97261 24.97261 0 0 1 -2.02 9.84l-19.43 45.34h-48l8-24 6.23-3.11a32.8997 32.8997 0 0 0 14.66016-14.66 12.03677 12.03677 0 0 0 -.75-12.02l-12.14016-18.21-35.28-10.58a55.78979 55.78979 0 0 1 -26.2-16.94c-25.64014 6.54-63.16992 11.1-99.05 11.79-13.49 37.3-47.47 63.73-47.47 63.73h-48c32-32 32-56 32-56-2.82007-2.82-5.62988-7.61-8.1001-13.35-16.59985-3.89-28.4199-9.94-31.8999-18.65 0 24-20.15991 29.41-39.14014 39.73a40.00242 40.00242 0 0 1 -52.35986-12.98l-9.27-13.9-11.23-34.19 35.47-23.64a17.825 17.825 0 0 1 4.53-2.17v-20.73a34.52227 34.52227 0 0 1 7.57007-21.58l14.05981-17.57a34.50638 34.50638 0 0 1 26.37012-12.96c5.28-5.29 23.28-23.29 50.34009-50.35q3.26989-3.27 6.97-6.34c46.51-38.75 115.16992-34.84 157.98 7.97l102.54 102.54a65.36055 65.36055 0 0 1 17.18991 62.08l-1.1499 4.63a65.38924 65.38924 0 0 0 4.93994 45.09 24.99813 24.99813 0 0 1 2.63996 11.19z" fill="#a06443"/><path d="m107.102 440 8-24h48l-8 24z" fill="#f3b73f"/><path d="m152 440 8-24h48l-8 24z" fill="#f0cd81"/><path d="m400 440 8-24h50.285l-10.285 24z" fill="#f0cd81"/><path d="m44 304-5.29846 3.5323a19.90539 19.90539 0 0 0 -4.67844 28.77323 19.90537 19.90537 0 0 0 15.71998 7.69447h1.60782a17.54969 17.54969 0 0 0 16.6491-12 8 8 0 0 1 -8-8 8 8 0 0 1 8-8l-4-12z" fill="#062938"/><path d="m448 264h12a12 12 0 0 1 12 12 12 12 0 0 1 -2.4 7.2 71.99993 71.99993 0 0 1 -57.6 28.8h-4l22.63345-11.31672a31.41642 31.41642 0 0 0 14.04983-14.04983 31.41632 31.41632 0 0 0 3.31672-14.04985z" fill="#632b1a"/><path d="m384 320a43.18675 43.18675 0 0 1 24.97054-21.65683l2.05889-.6863a12.64913 12.64913 0 0 1 9.65685.68629 12.6491 12.6491 0 0 1 5.65685 16.97055 12.64906 12.64906 0 0 1 -7.3137 6.34314l-2.05889.6863a43.18671 43.18671 0 0 1 -32.97054-2.34315z" fill="#4d150b"/><circle cx="120" cy="264" fill="#062938" r="8"/><g fill="#632b1a"><path d="m263.99 352.04q-4.27478.15-8.52.23c6.98-19.43 7.18994-38.51.53-56.27a3.99988 3.99988 0 0 1 7.49-2.81c7.02 18.71 7.13012 38.64.5 58.85z"/><path d="m183.8999 346.65c-3.43994-.81-6.66992-1.71-9.65991-2.7-3.75999-10.44-6.23999-22.32-6.23999-31.95a4 4 0 0 1 8 0c0 10.41 3.33008 24.08 7.8999 34.65"/><path d="m354.51 340.48c-2.75.7-5.63989 1.38-8.65015 2.04a63.75634 63.75634 0 0 1 -12.64985-45.81l2.84009-25.59a3.99926 3.99926 0 1 1 7.94991.88l-2.84009 25.59a56.05561 56.05561 0 0 0 13.35009 42.89z"/><path d="m160 300a4 4 0 0 1 0-8c22.64258 0 32.04-8.23242 35.15723-12.00439-3.09375-3.74361-12.48633-11.99561-35.15723-11.99561a4 4 0 0 1 0-8c34.08008 0 43.20605 17.46777 43.57812 18.21094a4.0044 4.0044 0 0 1 0 3.57812c-.37207.74317-9.49804 18.21094-43.57812 18.21094z"/><path d="m181.832 284.001a3.98845 3.98845 0 0 1 -1.68848-.376c-5.15426-2.40527-11.93161-3.625-20.14352-3.625a4 4 0 0 1 0-8c9.38965 0 17.30469 1.47217 23.52637 4.375a4.00072 4.00072 0 0 1 -1.69434 7.626z"/><path d="m104 356a4.0002 4.0002 0 0 1 -4-4c0-14.91162 8.81836-26.88135 26.21094-35.57764a4 4 0 1 1 3.57812 7.15528c-14.66206 7.33105-21.78906 16.62793-21.78906 28.42236a4.0002 4.0002 0 0 1 -4 4z"/></g><path d="m153.61249 224h17.89509a16 16 0 0 0 15.52228-12.11943l4.97014-19.88057 12.00159 27.00357a32 32 0 0 1 -29.24197 44.99643h-21.14713a20 20 0 0 1 -15.61736-7.50609 20 20 0 0 1 0-24.98778 20 20 0 0 1 15.61736-7.50613z" fill="#f0cd81"/><path d="m388 204-59.03 59.03a24.00327 24.00327 0 0 1 -33.93994 0l-105.37015-105.37a7.99688 7.99688 0 0 0 -11.31982 0q3.26989-3.27 6.97-6.34a114.99266 114.99266 0 0 1 53.14991-24.86l67.88013 67.88a7.99688 7.99688 0 0 0 11.31982 0l30.34005-30.34z" fill="#03999c"/></g></svg>